<svg fill="#000000" xmlns="http://www.w3.org/2000/svg" viewBox="0 0 50 50" width="500px" height="500px"><path d="M 22.851562 5.8027344 C 20.623562 5.8027344 18.271828 6.2197656 16.048828 7.0097656 C 13.386828 7.9557656 8.3537344 10.073906 4.5527344 13.628906 C 0.69373438 17.238906 -0.25828125 20.711766 0.13671875 22.759766 C 0.87771875 26.597766 4.5670937 29.225203 7.3710938 31.158203 C 5.3230937 32.412203 3.0980312 34.139375 2.2070312 36.109375 C 1.3660313 37.967375 1.3211719 39.881047 2.0761719 41.498047 C 2.6401719 42.705047 3.6033438 43.600578 4.6523438 43.892578 C 5.3783437 44.094578 6.1288125 44.197266 6.8828125 44.197266 C 9.8608125 44.197266 12.798734 42.572031 14.552734 39.957031 C 14.815734 39.565031 15.042328 39.157234 15.236328 38.740234 C 15.343328 38.867234 15.454359 38.987703 15.568359 39.095703 C 16.525359 40.002703 17.666016 40.001953 18.041016 40.001953 C 19.197016 40.001953 20.010656 39.500906 20.597656 38.878906 C 21.087656 39.204906 21.664156 39.378906 22.285156 39.378906 C 22.360156 39.378906 22.437719 39.378141 22.511719 39.369141 C 23.754719 39.217141 25.095703 38.003906 25.095703 38.003906 C 25.147703 38.048906 25.199859 38.090813 25.255859 38.132812 C 25.783859 38.530813 26.448156 38.724609 27.285156 38.724609 C 27.424156 38.724609 27.567891 38.720937 27.712891 38.710938 C 28.735891 38.641937 29.507187 38.397359 29.992188 38.193359 C 30.480187 38.015359 31.186578 37.700641 31.892578 37.181641 C 32.063578 37.055641 32.226906 36.923203 32.378906 36.783203 C 32.689906 36.972203 33.040875 37.108547 33.421875 37.185547 C 33.607875 37.223547 33.801953 37.242187 34.001953 37.242188 C 34.527953 37.242188 35.097234 37.113609 35.740234 36.849609 C 36.262234 36.669609 37.015578 36.346922 37.767578 35.794922 C 39.509578 34.513922 40.357156 32.991437 40.285156 31.273438 C 40.283156 31.220437 40.279391 31.167281 40.275391 31.113281 C 40.532391 31.085281 40.798266 31.072266 41.072266 31.072266 C 41.411266 31.072266 41.768812 31.094719 42.132812 31.136719 C 44.517812 31.415719 45.030484 32.541063 45.021484 32.914062 C 45.006484 33.012062 44.836734 33.169578 44.677734 33.267578 C 43.668734 33.891578 43.248734 34.701781 43.427734 35.675781 C 43.618734 36.729781 44.504078 37.46875 45.580078 37.46875 C 45.785078 37.46875 45.964281 37.442969 46.113281 37.417969 C 47.392281 37.201969 49.829406 35.614719 49.941406 32.761719 C 50.007406 31.105719 49.329031 29.411281 48.082031 28.113281 C 46.515031 26.483281 44.217328 25.585938 41.611328 25.585938 L 41.550781 25.585938 C 40.474781 25.591938 39.429781 25.739391 38.425781 26.025391 L 38.394531 25.798828 C 38.333531 25.369828 38.310375 25.208938 38.359375 24.835938 C 38.403375 24.500937 38.608031 23.895516 38.707031 23.603516 C 38.846031 23.195516 38.947109 22.900844 38.912109 22.464844 C 38.844109 21.613844 38.136922 20.168344 35.919922 20.152344 L 35.912109 20.152344 L 35.857422 20.152344 C 33.887422 20.152344 32.670234 20.724516 32.240234 21.853516 C 32.186234 21.994516 32.122641 22.180531 32.056641 22.394531 C 31.596641 21.910531 30.857609 21.529484 29.724609 21.521484 L 29.716797 21.521484 L 29.660156 21.521484 C 29.425156 21.521484 29.201281 21.530875 28.988281 21.546875 C 31.830281 18.913875 33.64175 15.132766 32.71875 11.509766 C 31.82175 7.9897656 28.040563 5.8027344 22.851562 5.8027344 z M 22.849609 7.7929688 C 26.839609 7.7929688 30.099969 9.2849062 30.792969 12.003906 C 31.806969 15.979906 28.353594 20.735312 23.933594 22.445312 C 21.636594 23.334312 19.570469 23.623047 17.980469 23.623047 C 16.839469 23.623047 15.942813 23.473062 15.382812 23.289062 C 13.858812 22.789062 12.964094 21.78575 12.746094 21.21875 C 12.661094 20.99675 12.513094 20.623141 12.746094 20.494141 C 12.786094 20.472141 12.820469 20.457031 12.855469 20.457031 C 12.947469 20.457031 13.055078 20.551469 13.330078 20.855469 C 13.649078 21.207469 14.812797 22.078125 16.966797 22.078125 C 17.269797 22.078125 17.5945 22.062438 17.9375 22.023438 C 25.2325 21.205437 29.626281 15.536328 28.238281 12.486328 C 27.728281 11.366328 25.938891 10.570313 23.337891 10.570312 C 20.980891 10.570312 17.957188 11.225625 14.617188 12.890625 C 6.0411875 17.163625 5.5769063 20.685437 5.5039062 22.023438 C 5.3029063 25.703437 10.045328 27.640906 12.611328 30.378906 C 12.645328 30.414906 12.677938 30.450328 12.710938 30.486328 C 13.191937 30.221328 13.698313 29.942922 14.195312 29.669922 C 15.489313 28.958922 16.707344 28.292422 17.277344 27.982422 C 18.180344 26.670422 20.014891 25.222656 21.337891 25.222656 C 23.453891 25.222656 22.724609 28.261719 22.724609 28.261719 C 22.724609 28.261719 22.768172 28.120141 22.826172 28.119141 C 22.872172 28.118141 23.020766 27.882812 23.384766 27.882812 C 23.493766 27.882812 23.620484 27.903984 23.771484 27.958984 C 24.443484 28.204984 24.290922 28.676609 24.294922 28.724609 C 24.302922 28.817609 23.501969 31.519953 23.167969 33.251953 C 23.008969 34.077953 23.101437 34.679688 23.148438 34.679688 C 23.214437 34.679688 23.347656 34.468188 23.472656 34.242188 L 23.470703 34.236328 C 23.470703 34.236328 23.563703 34.066766 23.720703 33.759766 C 23.740703 33.718766 23.751953 33.693359 23.751953 33.693359 C 23.751953 33.693359 23.753906 33.695312 23.753906 33.695312 C 23.937906 33.333312 24.197094 32.803531 24.496094 32.144531 C 25.083094 30.850531 27.323672 25.857688 27.513672 25.304688 C 27.703672 24.751687 27.803484 24.179547 27.896484 23.935547 C 27.988484 23.695547 28.753203 23.513672 29.658203 23.513672 L 29.707031 23.513672 C 30.633031 23.520672 30.725422 23.914094 30.732422 23.996094 C 30.739422 24.078094 30.291453 25.173266 30.189453 25.947266 C 30.087453 26.721266 30.185531 27.109766 30.269531 27.759766 C 30.325531 28.185766 30.591297 28.724937 30.904297 29.335938 C 31.861297 27.769938 33.547937 24.774547 33.710938 23.935547 C 33.821937 23.362547 34.00075 22.812359 34.09375 22.568359 C 34.18575 22.328359 34.951469 22.144531 35.855469 22.144531 L 35.902344 22.144531 C 36.828344 22.151531 36.922687 22.546906 36.929688 22.628906 C 36.936687 22.710906 36.488719 23.806078 36.386719 24.580078 C 36.284719 25.354078 36.382797 25.740625 36.466797 26.390625 C 36.538797 26.946625 36.970484 27.696875 37.396484 28.546875 C 38.561484 27.972875 39.951641 27.586125 41.556641 27.578125 L 41.607422 27.578125 C 45.726422 27.578125 48.049125 30.2525 47.953125 32.6875 C 47.881125 34.6095 46.113156 35.402984 45.785156 35.458984 C 45.705156 35.472984 45.636078 35.482422 45.580078 35.482422 C 45.469078 35.482422 45.405812 35.442359 45.382812 35.318359 C 45.358812 35.189359 45.444609 35.130031 45.724609 34.957031 C 46.004609 34.784031 46.841234 34.210016 46.990234 33.166016 C 47.140234 32.122016 46.356281 29.629109 42.363281 29.162109 C 41.909281 29.109109 41.480266 29.085938 41.072266 29.085938 C 39.809266 29.085938 38.765109 29.321734 37.912109 29.677734 C 38.122109 30.220734 38.276781 30.785469 38.300781 31.355469 C 38.352781 32.607469 37.487844 33.532359 36.589844 34.193359 C 36.066844 34.578359 35.505062 34.835234 35.039062 34.990234 C 34.727063 35.122234 34.329953 35.255859 34.001953 35.255859 C 33.935953 35.255859 33.873453 35.250281 33.814453 35.238281 C 33.035453 35.081281 32.620391 34.390234 33.150391 32.865234 C 33.437391 32.040234 34.26275 30.783172 35.59375 29.701172 C 35.28975 29.076172 34.951297 28.439469 34.779297 27.855469 C 34.440297 26.702469 34.335938 26.005859 34.335938 26.005859 C 34.335938 26.005859 33.236312 28.280563 31.820312 30.351562 C 31.738312 30.471563 31.657172 30.588078 31.576172 30.705078 C 31.854172 31.350078 32.074516 32.034609 32.103516 32.724609 C 32.155516 33.975609 31.612844 34.921031 30.714844 35.582031 C 30.227844 35.940031 29.709672 36.187703 29.263672 36.345703 C 28.977672 36.469703 28.399172 36.672516 27.576172 36.728516 C 27.477172 36.735516 27.379203 36.740234 27.283203 36.740234 C 26.944203 36.740234 26.639219 36.691828 26.449219 36.548828 C 26.116219 36.298828 26.076047 35.9865 26.248047 35.5625 C 26.394047 35.2025 27.484391 33.956234 28.400391 32.865234 C 28.652391 32.564234 28.894375 32.257656 29.109375 31.972656 C 29.106375 31.965656 29.105469 31.960937 29.105469 31.960938 C 29.105469 31.960938 29.271016 31.747047 29.541016 31.373047 C 29.207016 30.654047 28.782031 29.902609 28.582031 29.224609 C 28.243031 28.071609 28.140625 27.373047 28.140625 27.373047 C 28.140625 27.373047 27.027187 30.226906 25.867188 32.503906 C 24.969188 34.266906 24.369609 35.335687 24.099609 35.804688 C 24.097609 35.816688 24.095703 35.822266 24.095703 35.822266 C 24.095703 35.822266 24.056328 35.891047 23.986328 35.998047 C 23.952328 36.056047 23.935547 36.085938 23.935547 36.085938 C 23.935547 36.085938 23.934594 36.082125 23.933594 36.078125 C 23.632594 36.522125 22.956156 37.392578 22.285156 37.392578 C 20.441156 37.392578 21.119141 33.650391 21.119141 33.650391 C 21.119141 33.650391 20.580656 35.036562 19.972656 36.226562 C 19.477656 37.196562 19.027016 38.017578 18.041016 38.017578 C 17.756016 38.017578 17.307594 38.008297 16.933594 37.654297 C 16.086594 36.850297 15.439406 34.808516 15.566406 33.228516 C 15.674406 31.883516 15.881062 30.952781 16.164062 30.175781 C 15.657063 30.451781 15.073516 30.777953 14.478516 31.126953 C 14.173516 31.305953 13.866453 31.488016 13.564453 31.666016 C 13.574453 31.684016 13.58475 31.702703 13.59375 31.720703 C 14.35175 33.184703 14.551391 36.389563 12.900391 38.851562 C 11.561391 40.848562 9.2898594 42.212891 6.8808594 42.212891 C 6.3188594 42.212891 5.7495937 42.138469 5.1835938 41.980469 C 4.2175937 41.711469 2.756625 39.713687 4.015625 36.929688 C 5.125625 34.475687 9.5634219 32.152219 10.732422 31.574219 C 10.830422 31.520219 10.939687 31.461438 11.054688 31.398438 C 8.7236875 29.359437 2.8999844 26.609766 2.0839844 22.384766 C 1.8539844 21.195766 2.41125 18.349078 5.90625 15.080078 C 8.84525 12.331078 12.934937 10.226766 16.710938 8.8847656 C 18.789938 8.1457656 20.905609 7.7929688 22.849609 7.7929688 z M 23.341797 12.552734 C 25.471797 12.552734 26.340406 13.171219 26.441406 13.324219 C 26.581406 13.634219 26.549766 14.326297 26.009766 15.279297 C 24.852766 17.319297 21.83975 19.584875 17.71875 20.046875 C 17.46175 20.075875 17.210703 20.089844 16.970703 20.089844 C 15.429703 20.089844 14.789203 19.502094 14.783203 19.496094 C 14.425203 19.100094 13.851375 18.467797 12.859375 18.466797 C 12.489375 18.466797 12.129109 18.563906 11.787109 18.753906 C 11.496109 18.914906 10.085625 19.823969 10.890625 21.917969 C 11.327625 23.053969 12.692625 24.495781 14.765625 25.175781 C 15.319625 25.357781 15.998141 25.484734 16.744141 25.552734 C 16.442141 25.852734 16.174266 26.155359 15.947266 26.443359 C 15.302266 26.795359 14.297188 27.345781 13.242188 27.925781 L 13.042969 28.033203 C 12.397969 27.465203 11.710109 26.937922 11.037109 26.419922 C 8.8451094 24.733922 7.4142344 23.523906 7.4902344 22.128906 C 7.6512344 19.180906 11.937859 16.442063 15.505859 14.664062 C 18.237859 13.303062 21.020797 12.552734 23.341797 12.552734 z M 25.886719 23.738281 C 25.869719 23.803281 25.854891 23.870453 25.837891 23.939453 C 25.780891 24.169453 25.716672 24.428297 25.638672 24.654297 C 25.572672 24.834297 25.295687 25.474641 24.929688 26.306641 C 24.873687 26.274641 24.816813 26.244797 24.757812 26.216797 C 24.657812 25.634797 24.447734 25.036578 24.052734 24.517578 C 24.250734 24.447578 24.449344 24.372922 24.652344 24.294922 C 25.068344 24.133922 25.480719 23.948281 25.886719 23.738281 z M 21.292969 27.017578 C 20.948969 27.017578 20.391094 27.317438 19.871094 27.898438 C 19.423094 28.400437 18.659734 29.693391 18.302734 30.775391 C 17.592734 32.925391 17.898344 35.110187 18.402344 35.242188 C 18.417344 35.246187 18.434219 35.248047 18.449219 35.248047 C 19.039219 35.248047 19.966063 32.492438 20.414062 31.398438 C 20.703063 30.694437 21.826078 27.571297 21.580078 27.154297 C 21.526078 27.063297 21.425969 27.017578 21.292969 27.017578 z M 36.230469 30.558594 C 35.484469 31.217594 35.055187 31.908359 34.867188 32.318359 C 34.388188 33.362359 34.364766 33.696781 34.509766 33.800781 C 35.206766 33.550781 36.357187 32.947031 36.367188 31.332031 C 36.369188 31.090031 36.317469 30.829594 36.230469 30.558594 z M 12.148438 32.337891 C 12.076438 32.379891 12.009359 32.420938 11.943359 32.460938 L 11.943359 32.462891 C 11.943359 32.462891 11.912469 32.480672 11.855469 32.513672 C 11.511469 32.719672 11.227156 32.889859 11.035156 33.005859 C 10.188156 33.534859 8.910875 34.395125 7.921875 35.328125 C 6.298875 36.859125 5.9584531 38.984469 6.8144531 39.480469 C 6.9974531 39.586469 7.238625 39.638672 7.515625 39.638672 C 8.435625 39.638672 9.7603437 39.060172 10.777344 37.951172 C 12.165344 36.436172 12.738437 34.516891 12.148438 32.337891 z M 30.167969 32.587891 C 29.879969 32.965891 29.614719 33.301938 29.386719 33.585938 C 28.994719 34.073937 27.998047 35.144531 27.998047 35.144531 C 27.998047 35.144531 27.856969 35.278453 27.917969 35.314453 C 27.937969 35.326453 27.963188 35.332031 27.992188 35.332031 C 28.087187 35.332031 28.226953 35.275266 28.376953 35.197266 C 28.929953 34.849266 30.168875 33.983219 30.171875 32.699219 C 30.171875 32.662219 30.170969 32.625891 30.167969 32.587891 z"/></svg>