<svg fill="#000000" xmlns="http://www.w3.org/2000/svg" viewBox="0 0 50 50" width="500px" height="500px"><path d="M 9 4 C 6.2504839 4 4 6.2504839 4 9 L 4 41 C 4 43.749516 6.2504839 46 9 46 L 41 46 C 43.749516 46 46 43.749516 46 41 L 46 9 C 46 6.2504839 43.749516 4 41 4 L 9 4 z M 9 6 L 41 6 C 42.668484 6 44 7.3315161 44 9 L 44 41 C 44 42.668484 42.668484 44 41 44 L 9 44 C 7.3315161 44 6 42.668484 6 41 L 6 9 C 6 7.3315161 7.3315161 6 9 6 z M 12 9 C 10.35503 9 9 10.35503 9 12 L 9 36 C 9 37.64497 10.35503 39 12 39 L 19 39 C 20.64497 39 22 37.64497 22 36 L 22 12 C 22 10.35503 20.64497 9 19 9 L 12 9 z M 31 9 C 29.35503 9 28 10.35503 28 12 L 28 24 C 28 25.64497 29.35503 27 31 27 L 38 27 C 39.64497 27 41 25.64497 41 24 L 41 12 C 41 10.35503 39.64497 9 38 9 L 31 9 z M 12 11 L 19 11 C 19.56503 11 20 11.43497 20 12 L 20 36 C 20 36.56503 19.56503 37 19 37 L 12 37 C 11.43497 37 11 36.56503 11 36 L 11 12 C 11 11.43497 11.43497 11 12 11 z M 31 11 L 38 11 C 38.56503 11 39 11.43497 39 12 L 39 24 C 39 24.56503 38.56503 25 38 25 L 31 25 C 30.43497 25 30 24.56503 30 24 L 30 12 C 30 11.43497 30.43497 11 31 11 z"/></svg>